<svg version="1.1" id="Capa_1" xmlns="http://www.w3.org/2000/svg" x="0" y="0" viewBox="0 0 512 512" xml:space="preserve"><style>.st0{fill:#e74240}</style><path class="st0" d="M442.2 145c10.6 0 17.9-10.7 14-20.5C442 89.6 407.8 65 368 65h-18.4C342.7 28.7 310.9 0 272 0h-32c-38.9 0-70.7 28.7-77.6 65H144c-39.8 0-74 24.6-88.1 59.5-4 9.8 3.4 20.5 14 20.5h372.3zM240 30h32c21.9 0 40.5 14.7 46.7 35H193.3c6.2-20.3 24.8-35 46.7-35zM111.1 470.2c1.7 23.4 21.4 41.8 44.9 41.8h200.1c23.5 0 43.2-18.4 44.9-41.8L422 175H90l21.1 295.2zM297 255.3c.4-8.3 7.5-14.7 15.7-14.2 8.3.4 14.6 7.5 14.2 15.7l-8 160c-.4 8-7 14.3-15 14.3-8.6 0-15.4-7.2-15-15.7l8.1-160.1zM199.3 241c8.3-.4 15.3 6 15.7 14.2l8 160c.4 8.5-6.4 15.7-15 15.7-7.9 0-14.6-6.2-15-14.3l-8-160c-.4-8.1 6-15.2 14.3-15.6z"/></svg>